<svg width="1120" height="260" viewBox="0 0 1120 260" fill="none" xmlns="http://www.w3.org/2000/svg"><defs><linearGradient id="g" x1="0" y1="0" x2="1120" y2="260"><stop stop-color="#fff"/><stop offset="1" stop-color="#f8fbff"/></linearGradient><radialGradient id="b" cx="0" cy="0" r="1" gradientTransform="translate(1020 40) scale(300 120)"><stop stop-color="#60a5fa" stop-opacity=".20"/><stop offset="1" stop-color="#60a5fa" stop-opacity="0"/></radialGradient></defs><rect x="1" y="1" width="1118" height="258" rx="28" fill="url(#g)" stroke="#e2e8f0"/><rect x="1" y="1" width="1118" height="258" rx="28" fill="url(#b)"/><text x="48" y="56" font-family="Inter,Segoe UI,Arial,sans-serif" font-size="14" font-weight="800" letter-spacing=".16em" fill="#2563eb">BACKEND FOCUS</text><text x="48" y="94" font-family="Inter,Segoe UI,Arial,sans-serif" font-size="30" font-weight="800" fill="#0f172a">How I think about software</text><text x="48" y="122" font-family="Inter,Segoe UI,Arial,sans-serif" font-size="16" font-weight="500" fill="#64748b">Small enough to understand. Structured enough to maintain. Useful enough to matter.</text><g font-family="Inter,Segoe UI,Arial,sans-serif"><rect x="48" y="154" width="240" height="64" rx="18" fill="#fff" stroke="#dbeafe"/><text x="72" y="180" font-size="13" font-weight="800" letter-spacing=".12em" fill="#2563eb">API LAYER</text><text x="72" y="202" font-size="15" font-weight="600" fill="#1e293b">Node.js · Express · FastAPI</text><rect x="314" y="154" width="240" height="64" rx="18" fill="#fff" stroke="#dbeafe"/><text x="338" y="180" font-size="13" font-weight="800" letter-spacing=".12em" fill="#0284c7">DATA LAYER</text><text x="338" y="202" font-size="15" font-weight="600" fill="#1e293b">PostgreSQL · MongoDB · SQL</text><rect x="580" y="154" width="240" height="64" rx="18" fill="#fff" stroke="#ddd6fe"/><text x="604" y="180" font-size="13" font-weight="800" letter-spacing=".12em" fill="#7c3aed">DELIVERY</text><text x="604" y="202" font-size="15" font-weight="600" fill="#1e293b">Docker · GCP · PM2</text><rect x="846" y="154" width="226" height="64" rx="18" fill="#fff" stroke="#bae6fd"/><text x="870" y="180" font-size="13" font-weight="800" letter-spacing=".12em" fill="#0f766e">AUTOMATION</text><text x="870" y="202" font-size="15" font-weight="600" fill="#1e293b">Python · Excel/PDF flows</text></g></svg>
