<svg width="1200" height="360" viewBox="0 0 1200 360" fill="none" xmlns="http://www.w3.org/2000/svg">
  <defs>
    <linearGradient id="bg" x1="0" y1="0" x2="1200" y2="360" gradientUnits="userSpaceOnUse">
      <stop offset="0" stop-color="#0B1020"/>
      <stop offset="0.45" stop-color="#111827"/>
      <stop offset="1" stop-color="#083344"/>
    </linearGradient>
    <radialGradient id="glow1" cx="0" cy="0" r="1" gradientUnits="userSpaceOnUse" gradientTransform="translate(980 70) rotate(140) scale(360 240)">
      <stop stop-color="#22D3EE" stop-opacity="0.55"/>
      <stop offset="1" stop-color="#22D3EE" stop-opacity="0"/>
    </radialGradient>
    <radialGradient id="glow2" cx="0" cy="0" r="1" gradientUnits="userSpaceOnUse" gradientTransform="translate(180 300) rotate(-25) scale(360 220)">
      <stop stop-color="#8B5CF6" stop-opacity="0.45"/>
      <stop offset="1" stop-color="#8B5CF6" stop-opacity="0"/>
    </radialGradient>
    <filter id="shadow" x="-20%" y="-20%" width="140%" height="140%">
      <feDropShadow dx="0" dy="12" stdDeviation="18" flood-color="#000000" flood-opacity="0.35"/>
    </filter>
  </defs>

  <rect width="1200" height="360" fill="url(#bg)"/>
  <rect width="1200" height="360" fill="url(#glow1)"/>
  <rect width="1200" height="360" fill="url(#glow2)"/>

  <g opacity="0.22">
    <path d="M0 275 C220 185 360 405 620 290 C810 205 930 230 1200 150" stroke="#67E8F9" stroke-width="2"/>
    <path d="M0 245 C250 165 390 350 610 255 C790 175 960 200 1200 115" stroke="#A78BFA" stroke-width="1.5"/>
    <circle cx="1010" cy="98" r="3" fill="#67E8F9"/>
    <circle cx="1050" cy="142" r="2" fill="#A78BFA"/>
    <circle cx="930" cy="178" r="2" fill="#67E8F9"/>
    <circle cx="235" cy="245" r="2" fill="#A78BFA"/>
    <circle cx="305" cy="285" r="3" fill="#67E8F9"/>
  </g>

  <g filter="url(#shadow)">
    <rect x="78" y="68" width="1044" height="224" rx="28" fill="#020617" fill-opacity="0.46" stroke="#38BDF8" stroke-opacity="0.22"/>
  </g>

  <text x="110" y="145" fill="#E5E7EB" font-family="Inter, Segoe UI, Arial, sans-serif" font-size="42" font-weight="800">
    Jhomar Sebastián Sánchez Durán
  </text>
  <text x="110" y="190" fill="#67E8F9" font-family="Inter, Segoe UI, Arial, sans-serif" font-size="25" font-weight="700">
    Junior Full Stack Developer · Node.js · TypeScript · React · Angular
  </text>
  <text x="110" y="235" fill="#CBD5E1" font-family="Inter, Segoe UI, Arial, sans-serif" font-size="20" font-weight="500">
    I build business software, APIs, dashboards and process automation tools.
  </text>

  <g transform="translate(890 205)">
    <rect x="0" y="0" width="188" height="48" rx="24" fill="#0EA5E9" fill-opacity="0.18" stroke="#38BDF8" stroke-opacity="0.55"/>
    <text x="24" y="31" fill="#E0F2FE" font-family="Inter, Segoe UI, Arial, sans-serif" font-size="16" font-weight="700">
      Open to work
    </text>
    <circle cx="154" cy="24" r="7" fill="#22C55E"/>
  </g>
</svg>
