<svg width="1200" height="340" viewBox="0 0 1200 340" fill="none" xmlns="http://www.w3.org/2000/svg">
<defs><linearGradient id="g" x1="0" y1="0" x2="1200" y2="340"><stop stop-color="#fff"/><stop offset="1" stop-color="#f3f8ff"/></linearGradient><radialGradient id="b" cx="0" cy="0" r="1" gradientTransform="translate(180 80) scale(320 110)"><stop stop-color="#60a5fa" stop-opacity=".32"/><stop offset="1" stop-color="#60a5fa" stop-opacity="0"/></radialGradient><radialGradient id="c" cx="0" cy="0" r="1" gradientTransform="translate(1010 255) scale(310 105)"><stop stop-color="#38bdf8" stop-opacity=".24"/><stop offset="1" stop-color="#38bdf8" stop-opacity="0"/></radialGradient></defs>
<rect width="1200" height="340" rx="34" fill="url(#g)"/><rect width="1200" height="340" rx="34" fill="url(#b)"/><rect width="1200" height="340" rx="34" fill="url(#c)"/>
<rect x="72" y="44" width="1056" height="252" rx="30" fill="#fff" fill-opacity=".84" stroke="#e2e8f0"/>
<circle cx="126" cy="86" r="5" fill="#2563eb" opacity=".55"/><circle cx="1074" cy="86" r="5" fill="#2563eb" opacity=".55"/><circle cx="149" cy="106" r="3.5" fill="#38bdf8" opacity=".6"/><circle cx="1051" cy="106" r="3.5" fill="#38bdf8" opacity=".6"/>
<text x="600" y="100" text-anchor="middle" font-family="Inter,Segoe UI,Arial,sans-serif" font-size="19" font-weight="800" letter-spacing=".18em" fill="#2563eb">JHOMAR SANCHEZ · SYSTEMS ENGINEER</text>
<text x="600" y="154" text-anchor="middle" font-family="Inter,Segoe UI,Arial,sans-serif" font-size="52" font-weight="800" fill="#0f172a">Backend Developer</text>
<text x="600" y="192" text-anchor="middle" font-family="Inter,Segoe UI,Arial,sans-serif" font-size="23" font-weight="600" fill="#334155">APIs · Automation · Internal Tools · Cloud-ready Software</text>
<text x="600" y="224" text-anchor="middle" font-family="Inter,Segoe UI,Arial,sans-serif" font-size="17" font-weight="500" fill="#64748b">Node.js · TypeScript · Python · PostgreSQL · MongoDB · Docker · Google Cloud</text>
<g font-family="Inter,Segoe UI,Arial,sans-serif" font-size="13" font-weight="800"><rect x="255" y="249" width="145" height="34" rx="17" fill="#eff6ff" stroke="#bfdbfe"/><text x="327.5" y="271" text-anchor="middle" fill="#1d4ed8">Business apps</text><rect x="420" y="249" width="110" height="34" rx="17" fill="#f8fafc" stroke="#cbd5e1"/><text x="475" y="271" text-anchor="middle" fill="#334155">REST APIs</text><rect x="546" y="249" width="140" height="34" rx="17" fill="#f0fdff" stroke="#bae6fd"/><text x="616" y="271" text-anchor="middle" fill="#0369a1">Automation</text><rect x="702" y="249" width="112" height="34" rx="17" fill="#f5f3ff" stroke="#ddd6fe"/><text x="758" y="271" text-anchor="middle" fill="#6d28d9">Databases</text><rect x="830" y="249" width="115" height="34" rx="17" fill="#eff6ff" stroke="#bfdbfe"/><text x="887.5" y="271" text-anchor="middle" fill="#1d4ed8">Cloud</text></g>
</svg>
