<svg width="1120" height="180" viewBox="0 0 1120 180" fill="none" xmlns="http://www.w3.org/2000/svg"><defs><linearGradient id="g" x1="0" y1="0" x2="1120" y2="180"><stop stop-color="#fff"/><stop offset="1" stop-color="#f8fbff"/></linearGradient></defs><rect x="1" y="1" width="1118" height="178" rx="28" fill="url(#g)" stroke="#e2e8f0"/><text x="48" y="48" font-family="Inter,Segoe UI,Arial,sans-serif" font-size="14" font-weight="800" letter-spacing=".16em" fill="#2563eb">TECH STACK</text><text x="48" y="82" font-family="Inter,Segoe UI,Arial,sans-serif" font-size="23" font-weight="800" fill="#0f172a">Tools I use to build and ship backend-focused business software</text><g font-family="Inter,Segoe UI,Arial,sans-serif" font-size="13" font-weight="800"><rect x="48" y="110" width="83" height="32" rx="16" fill="#eff6ff" stroke="#bfdbfe"/><text x="89.5" y="131" text-anchor="middle" fill="#1d4ed8">Node.js</text><rect x="143" y="110" width="105" height="32" rx="16" fill="#eff6ff" stroke="#bfdbfe"/><text x="195.5" y="131" text-anchor="middle" fill="#1d4ed8">TypeScript</text><rect x="260" y="110" width="85" height="32" rx="16" fill="#fff" stroke="#cbd5e1"/><text x="302.5" y="131" text-anchor="middle" fill="#334155">Express</text><rect x="357" y="110" width="82" height="32" rx="16" fill="#ecfeff" stroke="#a5f3fc"/><text x="398" y="131" text-anchor="middle" fill="#0e7490">Python</text><rect x="451" y="110" width="87" height="32" rx="16" fill="#ecfeff" stroke="#a5f3fc"/><text x="494.5" y="131" text-anchor="middle" fill="#0e7490">FastAPI</text><rect x="550" y="110" width="112" height="32" rx="16" fill="#eff6ff" stroke="#bfdbfe"/><text x="606" y="131" text-anchor="middle" fill="#1d4ed8">PostgreSQL</text><rect x="674" y="110" width="94" height="32" rx="16" fill="#f0fdff" stroke="#bae6fd"/><text x="721" y="131" text-anchor="middle" fill="#0369a1">MongoDB</text><rect x="780" y="110" width="82" height="32" rx="16" fill="#f5f3ff" stroke="#ddd6fe"/><text x="821" y="131" text-anchor="middle" fill="#6d28d9">Docker</text><rect x="874" y="110" width="126" height="32" rx="16" fill="#eff6ff" stroke="#bfdbfe"/><text x="937" y="131" text-anchor="middle" fill="#1d4ed8">Google Cloud</text></g></svg>
