<svg width="1120" height="250" viewBox="0 0 1120 250" fill="none" xmlns="http://www.w3.org/2000/svg"><defs><linearGradient id="g" x1="0" y1="0" x2="1120" y2="250"><stop stop-color="#fff"/><stop offset="1" stop-color="#f7fbff"/></linearGradient><radialGradient id="b" cx="0" cy="0" r="1" gradientTransform="translate(180 60) scale(320 110)"><stop stop-color="#60a5fa" stop-opacity=".22"/><stop offset="1" stop-color="#60a5fa" stop-opacity="0"/></radialGradient></defs><rect x="1" y="1" width="1118" height="248" rx="28" fill="url(#g)" stroke="#e2e8f0"/><rect x="1" y="1" width="1118" height="248" rx="28" fill="url(#b)"/><text x="48" y="56" font-family="Inter,Segoe UI,Arial,sans-serif" font-size="14" font-weight="800" letter-spacing=".16em" fill="#2563eb">FEATURED PUBLIC PROJECT</text><text x="48" y="98" font-family="Inter,Segoe UI,Arial,sans-serif" font-size="38" font-weight="800" fill="#0f172a">TraceFlow</text><text x="48" y="130" font-family="Inter,Segoe UI,Arial,sans-serif" font-size="17" font-weight="500" fill="#475569">Event-driven workflow backend with persisted execution history.</text><g font-family="Inter,Segoe UI,Arial,sans-serif" font-size="13" font-weight="800"><rect x="48" y="158" width="94" height="32" rx="16" fill="#eff6ff" stroke="#bfdbfe"/><text x="95" y="179" text-anchor="middle" fill="#1d4ed8">FastAPI</text><rect x="154" y="158" width="118" height="32" rx="16" fill="#eff6ff" stroke="#bfdbfe"/><text x="213" y="179" text-anchor="middle" fill="#1d4ed8">PostgreSQL</text><rect x="284" y="158" width="116" height="32" rx="16" fill="#f8fafc" stroke="#cbd5e1"/><text x="342" y="179" text-anchor="middle" fill="#334155">SQLAlchemy</text><rect x="412" y="158" width="90" height="32" rx="16" fill="#f8fafc" stroke="#cbd5e1"/><text x="457" y="179" text-anchor="middle" fill="#334155">Alembic</text><rect x="514" y="158" width="72" height="32" rx="16" fill="#ecfeff" stroke="#a5f3fc"/><text x="550" y="179" text-anchor="middle" fill="#0e7490">JWT</text><rect x="598" y="158" width="88" height="32" rx="16" fill="#f5f3ff" stroke="#ddd6fe"/><text x="642" y="179" text-anchor="middle" fill="#6d28d9">Docker</text></g><rect x="788" y="42" width="268" height="158" rx="26" fill="#fff" stroke="#dbeafe"/><text x="820" y="86" font-family="Inter,Segoe UI,Arial,sans-serif" font-size="14" font-weight="800" letter-spacing=".12em" fill="#2563eb">CORE FLOW</text><text x="820" y="120" font-family="Inter,Segoe UI,Arial,sans-serif" font-size="15" font-weight="600" fill="#1e293b">event to workflow</text><text x="820" y="148" font-family="Inter,Segoe UI,Arial,sans-serif" font-size="15" font-weight="600" fill="#1e293b">steps to execution</text><text x="820" y="176" font-family="Inter,Segoe UI,Arial,sans-serif" font-size="15" font-weight="600" fill="#1e293b">history for inspection</text></svg>
